<svg width="584" height="584" viewBox="0 0 584 584" fill="none" xmlns="http://www.w3.org/2000/svg">
<path d="M321.18 386.22C326.69 386.56 333.35 385.71 339.97 386.74C357.72 389.5 369.97 405.08 368.79 423.33C367.68 440.24 352.9 453.95 335.47 454.25C330.949 454.381 326.447 453.602 322.233 451.959C318.019 450.315 314.179 447.84 310.94 444.682C307.702 441.524 305.132 437.747 303.383 433.575C301.634 429.404 300.742 424.923 300.76 420.4C300.68 410.19 300.84 399.98 300.64 389.77C300.59 386.77 301.64 386.1 304.36 386.18C309.59 386.33 314.82 386.22 321.18 386.22Z" fill="#14EF71"/>
<path d="M429.68 217L430.63 217.16C435.29 219.67 440.1 221.87 443.98 225.67C449.05 230.67 451.85 236.77 453.89 243.37C453.94 243.83 453.99 244.3 454.03 244.77C454.07 245.24 454.03 245.95 454.03 246.54C455.25 265.62 442.68 281.54 423.67 283.41C412.01 284.54 400.17 283.71 388.4 283.8C386.02 283.8 386.19 282.26 386.19 280.67C386.19 270.22 386.01 259.77 386.28 249.33C386.63 235.81 393.22 225.95 405.04 219.59C412.86 215.39 421.21 215.4 429.68 217Z" fill="#14EF71"/>
<path d="M262.32 198.57C256.41 198.15 249.51 199.16 242.65 197.9C227.19 195.05 215.08 180.72 215.15 165.16C215.22 148.06 227.34 133.81 243.89 131.36C264.67 128.28 282.18 143.05 283.05 164.08C283.49 174.63 282.65 185.16 283.16 195.7C283.28 198.39 282.08 198.62 280.02 198.59C274.44 198.53 268.85 198.57 262.32 198.57Z" fill="#14EF71"/>
<path d="M139.16 312.26C140.1 312.58 140.73 312.06 141.37 311.48C148.32 305.06 156.57 302.27 166 302.48C175 302.65 184.05 302.62 193.08 302.48C195.78 302.48 196.54 303.31 196.48 305.94C196.33 313.53 196.14 321.14 196.54 328.71C196.77 333.09 197.04 337.3 195.93 341.64C193.62 350.64 189.04 357.97 181.03 363C177.25 365.357 173.026 366.914 168.62 367.574C164.214 368.234 159.72 367.983 155.415 366.836C151.11 365.69 147.086 363.673 143.592 360.909C140.098 358.146 137.207 354.695 135.1 350.77C129.79 340.97 129.81 331.45 133.72 321.55C134.47 319.66 136.1 318.14 137.17 316.35C137.93 315.09 139.43 314.15 139.11 312.35L139.16 312.26Z" fill="#14EF71"/>
<path d="M283.36 334.83C283.36 315.389 267.602 299.63 248.165 299.63C228.727 299.63 212.97 315.389 212.97 334.83V419.9C212.97 439.34 228.727 455.1 248.165 455.1C267.602 455.1 283.36 439.34 283.36 419.9V334.83Z" fill="#14EF71"/>
<path d="M370.21 163.81C370.21 144.37 354.453 128.61 335.015 128.61C315.578 128.61 299.82 144.37 299.82 163.81V248.88C299.82 268.321 315.578 284.08 335.015 284.08C354.453 284.08 370.21 268.321 370.21 248.88V163.81Z" fill="#14EF71"/>
<path d="M334.84 300.36C315.399 300.36 299.64 316.117 299.64 335.555C299.64 354.993 315.399 370.75 334.84 370.75H419.91C439.35 370.75 455.11 354.993 455.11 335.555C455.11 316.117 439.35 300.36 419.91 300.36H334.84Z" fill="#14EF71"/>
<path d="M163.82 214.59C144.38 214.59 128.62 230.348 128.62 249.785C128.62 269.223 144.38 284.98 163.82 284.98H248.89C268.331 284.98 284.09 269.223 284.09 249.785C284.09 230.348 268.331 214.59 248.89 214.59H163.82Z" fill="#14EF71"/>
</svg>
