<?xml version="1.0" encoding="utf-8"?>
<!-- Generator: Adobe Illustrator 24.0.1, SVG Export Plug-In . SVG Version: 6.00 Build 0)  -->
<svg version="1.1" id="Capa_1" xmlns="http://www.w3.org/2000/svg" xmlns:xlink="http://www.w3.org/1999/xlink" x="0px" y="0px"
	 viewBox="0 0 32.5 32.5" style="enable-background:new 0 0 32.5 32.5;" xml:space="preserve">
<style type="text/css">
	.st0{fill:#57F19C;}
</style>
<g>
	<g id="Capa_2_1_">
		<g id="Layer_1">
			<g>
				<path class="st0" d="M25,23.9l-0.3-0.3l-0.9-0.9l-0.5,0.5l0.5,0.5H9.4V9.1l0.5,0.5l0.4-0.4L9.5,8.3c0,0-0.1-0.1-0.3-0.3
					C9.1,7.9,8.9,7.9,8.8,8c0,0,0,0,0,0L8.6,8.3L7.7,9.2l0.5,0.5l0.5-0.5v15.3H24l-0.5,0.5l0.4,0.4l0.8-0.8c0,0,0.1-0.1,0.3-0.3
					C25.1,24.2,25.1,24,25,23.9C25,23.9,25,23.9,25,23.9z"/>
			</g>
			<g>
				<path class="st0" d="M17.6,13.3c-0.5,0-1-0.4-1-1s0.4-1,1-1s1,0.4,1,1C18.6,12.8,18.1,13.3,17.6,13.3z M17.6,11.9
					c-0.2,0-0.4,0.2-0.4,0.4c0,0.2,0.2,0.4,0.4,0.4s0.4-0.2,0.4-0.4C18,12.1,17.8,11.9,17.6,11.9C17.6,11.9,17.6,11.9,17.6,11.9
					L17.6,11.9z"/>
			</g>
			<g>
				<path class="st0" d="M19.5,10.8c-0.5,0-1-0.4-1-1c0-0.5,0.4-1,1-1s1,0.4,1,1C20.5,10.4,20,10.8,19.5,10.8z M19.5,9.4
					c-0.2,0-0.4,0.2-0.4,0.4c0,0.2,0.2,0.4,0.4,0.4s0.4-0.2,0.4-0.4C19.9,9.6,19.7,9.4,19.5,9.4z"/>
			</g>
			<g>
				<path class="st0" d="M13.6,13.7c-0.5,0-0.9-0.4-1-0.9l0,0c-0.1-0.5,0.3-1,0.9-1.1c0.5-0.1,1,0.3,1.1,0.9c0.1,0.5-0.3,1-0.9,1.1
					c0,0,0,0,0,0C13.7,13.7,13.7,13.7,13.6,13.7z M13.2,12.8c0,0.2,0.2,0.4,0.5,0.4c0.2,0,0.4-0.2,0.4-0.5c0-0.2-0.2-0.4-0.5-0.4
					C13.3,12.3,13.2,12.5,13.2,12.8z"/>
			</g>
			<g>
				<path class="st0" d="M14.5,17c-0.5,0-1-0.4-1-1s0.4-1,1-1c0.5,0,1,0.4,1,1c0,0.5-0.4,0.9-0.9,1C14.6,17,14.6,17,14.5,17z
					 M14.5,15.6C14.5,15.6,14.5,15.6,14.5,15.6c-0.3,0-0.4,0.2-0.4,0.5c0,0.2,0.2,0.4,0.5,0.4c0,0,0,0,0,0c0.2,0,0.4-0.2,0.4-0.5
					c0-0.1-0.1-0.2-0.2-0.3C14.7,15.7,14.6,15.6,14.5,15.6L14.5,15.6z"/>
			</g>
			<g>
				<path class="st0" d="M20.5,22.1c-0.5,0-0.9-0.4-1-0.9l0,0c-0.1-0.5,0.3-1,0.9-1.1c0.5-0.1,1,0.3,1.1,0.9c0.1,0.5-0.3,1-0.9,1.1
					c0,0,0,0,0,0C20.5,22.1,20.5,22.1,20.5,22.1z M20,21.1c0,0.2,0.2,0.4,0.5,0.4c0.1,0,0.2-0.1,0.3-0.2c0.1-0.2,0.1-0.4-0.1-0.6
					c0,0,0,0,0,0c-0.1-0.1-0.2-0.1-0.3-0.1c-0.1,0-0.2,0.1-0.3,0.2C20,20.9,20,21,20,21.1L20,21.1z"/>
			</g>
			<g>
				<path class="st0" d="M18.8,18.7c-0.5,0-1-0.4-1-1s0.4-1,1-1c0.5,0,1,0.4,1,1c0,0.5-0.4,0.9-0.9,1C18.8,18.7,18.8,18.7,18.8,18.7
					z M18.8,17.3L18.8,17.3c-0.3,0-0.4,0.2-0.4,0.5c0,0,0,0,0,0l0,0c0,0.2,0.2,0.4,0.5,0.4c0,0,0,0,0,0c0.2,0,0.4-0.2,0.4-0.4
					C19.2,17.5,19,17.3,18.8,17.3L18.8,17.3L18.8,17.3z"/>
			</g>
			<g>
				<path class="st0" d="M22.3,17.7c-0.5,0-0.9-0.4-1-0.9l0,0c0-0.5,0.4-1,0.9-1.1c0.5,0,1,0.3,1,0.8c0.1,0.5-0.3,1-0.9,1.1
					C22.3,17.7,22.3,17.7,22.3,17.7z M21.8,16.8c0,0.2,0.2,0.4,0.5,0.4c0.2,0,0.4-0.2,0.4-0.5c0-0.2-0.2-0.4-0.5-0.4
					C22,16.4,21.8,16.6,21.8,16.8z"/>
			</g>
			<g>
				<path class="st0" d="M21.1,15.1c-0.5,0-0.9-0.4-1-0.9l0,0c-0.1-0.5,0.3-1,0.9-1.1c0.5-0.1,1,0.3,1.1,0.9c0.1,0.5-0.3,1-0.9,1.1
					C21.2,15.1,21.1,15.1,21.1,15.1z M20.7,14.2c0,0.2,0.2,0.4,0.5,0.4c0.1,0,0.2-0.1,0.3-0.2c0.1-0.2,0.1-0.4-0.1-0.6c0,0,0,0,0,0
					c-0.2-0.1-0.4-0.1-0.6,0.1C20.7,14,20.7,14.1,20.7,14.2L20.7,14.2z"/>
			</g>
			<g>
				<path class="st0" d="M23.6,13.7c-0.5,0-0.9-0.4-1-0.9l0,0c-0.1-0.5,0.3-1,0.9-1.1c0.5-0.1,1,0.3,1.1,0.9c0.1,0.5-0.3,1-0.9,1.1
					c0,0,0,0,0,0C23.6,13.7,23.6,13.7,23.6,13.7z M23.2,12.8c0,0.2,0.2,0.4,0.5,0.4c0.2,0,0.4-0.2,0.4-0.5c0-0.1-0.1-0.2-0.2-0.3
					c-0.1-0.1-0.2-0.1-0.3-0.1C23.3,12.3,23.1,12.5,23.2,12.8L23.2,12.8z"/>
			</g>
			<g>
				<path class="st0" d="M12,18.8c-0.5,0-1-0.4-1-1c0-0.5,0.4-1,1-1c0.5,0,0.9,0.4,1,0.9c0.1,0.5-0.3,1-0.9,1.1
					C12.1,18.8,12,18.8,12,18.8z M12,17.4C12,17.4,12,17.4,12,17.4c-0.2,0-0.3,0.1-0.3,0.2c-0.1,0.1-0.1,0.2-0.1,0.3l0,0
					c0,0.2,0.2,0.4,0.5,0.4c0.2,0,0.4-0.2,0.4-0.5C12.4,17.6,12.2,17.4,12,17.4L12,17.4z"/>
			</g>
			<g>
				<path class="st0" d="M15.7,21c-0.5,0-0.9-0.4-1-0.9c-0.1-0.5,0.3-1,0.9-1.1s1,0.3,1.1,0.9l0,0c0.1,0.5-0.3,1-0.9,1.1
					C15.7,21,15.7,21,15.7,21z M15.7,19.6C15.6,19.6,15.6,19.6,15.7,19.6c-0.3,0-0.4,0.2-0.4,0.5c0,0.2,0.2,0.4,0.5,0.4
					c0.1,0,0.2-0.1,0.3-0.2c0.1-0.1,0.1-0.2,0.1-0.3C16.1,19.7,15.9,19.6,15.7,19.6L15.7,19.6z"/>
			</g>
			<g>
				<rect x="8" y="15.3" transform="matrix(0.7071 -0.7071 0.7071 0.7071 -5.9828 16.862)" class="st0" width="18.7" height="0.7"/>
			</g>
		</g>
	</g>
</g>
</svg>
