<svg width="150" height="150" viewBox="0 0 150 150" fill="none" xmlns="http://www.w3.org/2000/svg">
<path d="M80.7266 91.8834C80.7266 91.7528 80.7266 91.6223 80.7266 91.4878V64.7952C80.7266 64.3125 80.7266 64.3125 81.2053 64.3125C82.6691 64.3125 84.1329 64.3125 85.5967 64.3125C85.8617 64.3125 85.9923 64.3798 86.016 64.6528C86.0635 65.0128 86.1624 65.3609 86.2415 65.717C86.4037 65.717 86.471 65.5943 86.558 65.5231C87.855 64.4504 89.5008 63.8915 91.1828 63.9528C92.8648 64.0141 94.4656 64.6912 95.6811 65.8554C97.2004 67.2842 98.2233 69.161 98.6008 71.2122C99.2749 74.2214 99.0619 77.3615 97.9875 80.2521C97.311 82.0285 96.231 83.5358 94.5258 84.4615C92.0018 85.8264 89.4896 85.8423 87.0486 84.2044C86.9529 84.1138 86.8379 84.0462 86.7123 84.0066C86.657 84.1308 86.6431 84.2695 86.6728 84.4022C86.6728 86.3526 86.649 88.2991 86.6728 90.2495C86.6728 90.5897 86.558 90.6886 86.2771 90.7519C84.568 91.1001 82.8629 91.468 81.1341 91.828C81.0668 91.828 80.9877 91.828 80.9442 91.9032L80.7266 91.8834ZM89.3669 69.1984C88.4769 69.1747 87.6102 69.4852 86.9378 70.0688C86.8446 70.14 86.7698 70.2324 86.7195 70.3384C86.6693 70.4444 86.6451 70.5609 86.649 70.6781C86.6648 73.3762 86.6648 76.073 86.649 78.7685C86.6413 78.8802 86.6607 78.9921 86.7055 79.0947C86.7502 79.1974 86.8191 79.2877 86.9062 79.358C87.3576 79.749 87.8987 80.0223 88.4812 80.1534C89.0638 80.2846 89.6698 80.2695 90.2452 80.1097C90.7189 79.9767 91.155 79.7351 91.519 79.4041C91.883 79.0731 92.1648 78.6617 92.342 78.2028C92.8644 77.1186 93.1356 75.9307 93.1356 74.7273C93.1356 73.5238 92.8644 72.3359 92.342 71.2517C91.7842 70.0253 90.8387 69.1905 89.3669 69.1984V69.1984Z" fill="#14EF71"/>
<path d="M32.3978 69.855C32.5066 69.6049 32.567 69.3364 32.5758 69.0638C33.1336 66.6584 34.7042 65.2065 36.9791 64.4429C38.4234 63.9915 39.9424 63.8288 41.4496 63.9642C42.9659 64.0631 44.4611 64.372 45.8924 64.882C46.0283 64.9072 46.1493 64.9837 46.2303 65.0957C46.3113 65.2076 46.3462 65.3464 46.3276 65.4834C46.3039 67.0659 46.3276 68.6207 46.3276 70.1913V70.5869C45.837 70.3733 45.39 70.1596 44.9271 69.9856C43.4156 69.391 41.8038 69.0928 40.1796 69.1073C39.8331 69.1067 39.4896 69.1711 39.1668 69.2972C38.9823 69.3594 38.8175 69.4691 38.6889 69.6154C38.5603 69.7616 38.4725 69.9391 38.4344 70.1301C38.3963 70.321 38.4092 70.5187 38.4718 70.7031C38.5344 70.8874 38.6445 71.0521 38.791 71.1803C39.302 71.6084 39.9001 71.9203 40.5436 72.0942C41.7455 72.4727 42.9217 72.9286 44.0646 73.4591C45.7421 74.3176 46.9725 75.552 47.3325 77.4786C47.9734 80.9443 46.2999 83.773 42.9292 84.9084C41.155 85.4707 39.2783 85.6328 37.434 85.3832C35.9156 85.208 34.4271 84.8329 33.007 84.2675C32.9012 84.242 32.8085 84.1781 32.7471 84.0882C32.6857 83.9983 32.6599 83.8888 32.6747 83.7809C32.6747 82.1391 32.6747 80.5012 32.6747 78.8594C32.6747 78.7565 32.6747 78.6576 32.6747 78.5112C33.5425 78.9779 34.446 79.3748 35.3768 79.6981C36.5535 80.1176 37.7878 80.3538 39.0363 80.3983C39.4652 80.415 39.8942 80.3697 40.3102 80.2638C40.564 80.2195 40.7988 80.1007 40.9848 79.9224C41.1708 79.7441 41.2996 79.5146 41.3546 79.2629C41.411 78.999 41.386 78.7242 41.2828 78.4749C41.1797 78.2255 41.0033 78.0133 40.777 77.8664C40.1237 77.432 39.4107 77.0949 38.6605 76.8654C37.5109 76.4827 36.3932 76.0104 35.3174 75.4531C33.735 74.5669 32.6866 73.3246 32.4452 71.4968C32.4452 71.4494 32.4452 71.4058 32.374 71.394L32.3978 69.855Z" fill="#14EF71"/>
<path d="M116.313 79.219C116.362 79.3197 116.377 79.4334 116.357 79.5434C116.357 80.8845 116.357 82.2297 116.357 83.5708C116.367 83.6752 116.343 83.7802 116.288 83.8696C116.233 83.9589 116.15 84.0277 116.052 84.0654C114.777 84.7067 113.399 85.1204 111.981 85.2878C110.269 85.5447 108.523 85.4722 106.838 85.0742C103.728 84.2513 101.647 82.3048 100.686 79.2467C99.5801 75.9697 99.7352 72.3982 101.121 69.2295C102.15 66.8558 103.835 65.1269 106.351 64.3634C110.47 63.1093 114.731 64.577 116.598 69.2335C117.152 70.6758 117.473 72.1967 117.551 73.7396C117.611 74.6693 117.551 75.5911 117.551 76.509C117.551 76.7938 117.464 76.8611 117.191 76.8611C113.583 76.8611 109.979 76.8611 106.375 76.8611C106.051 76.8611 105.956 76.9046 106.015 77.2567C106.34 79.2032 107.657 80.1883 109.552 80.3861C111.776 80.6224 114.022 80.2476 116.048 79.3021C116.155 79.2783 116.242 79.2506 116.313 79.219ZM108.947 72.4934C109.861 72.4934 110.774 72.4934 111.692 72.4934C111.914 72.4934 112.009 72.4499 111.997 72.2007C111.987 71.5594 111.838 70.9279 111.562 70.3491C111.284 69.7282 110.787 69.2314 110.166 68.9534C109.545 68.6754 108.843 68.6356 108.195 68.8418C106.518 69.3443 105.952 70.9149 105.912 72.2956C105.912 72.529 106.067 72.4895 106.201 72.4895C107.131 72.5171 108.049 72.5132 108.962 72.5132L108.947 72.4934Z" fill="#14EF71"/>
<path d="M48.6175 70.2669C48.6175 67.1019 48.6175 63.9686 48.6175 60.8194C48.6175 60.5108 48.7283 60.4238 49.0132 60.3684C50.6866 60.0203 52.3601 59.6682 54.0297 59.2963C54.3382 59.2251 54.4253 59.2646 54.4253 59.6088C54.4015 61.0687 54.4253 62.5285 54.4015 63.9923C54.4015 64.293 54.4846 64.3681 54.7972 64.3642C56.0592 64.3444 57.3173 64.3642 58.5793 64.3642C58.8285 64.3642 58.9314 64.4037 58.9314 64.6886C58.9314 66.1484 58.9314 67.6122 58.9314 69.0721C58.9314 69.3253 58.8523 69.3886 58.6109 69.3886C57.3252 69.3886 56.0394 69.3886 54.7536 69.3886C54.5163 69.3886 54.4213 69.4361 54.4253 69.6972C54.4253 72.4665 54.4253 75.2121 54.4253 77.9696C54.4253 79.2712 55.1057 80.0941 56.3045 80.2642C56.8482 80.3396 57.4012 80.3114 57.9344 80.1811C58.1679 80.135 58.3979 80.0729 58.6228 79.9952C58.8641 79.9003 58.9235 79.9596 58.9195 80.2128C58.9195 81.004 58.9195 81.8269 58.9195 82.634C58.9195 83.2274 58.9195 83.8209 58.9195 84.4183C58.9289 84.5099 58.9059 84.602 58.8547 84.6786C58.8034 84.7551 58.727 84.8114 58.6386 84.8376C57.9196 85.1226 57.1648 85.3076 56.3955 85.3875C55.1216 85.5339 53.8516 85.5814 52.6252 85.1264C51.5624 84.7844 50.6219 84.1409 49.9181 83.2741C49.2143 82.4074 48.7776 81.3548 48.6611 80.2444C48.6098 79.851 48.5886 79.4542 48.5978 79.0576V70.2669H48.6175Z" fill="#14EF71"/>
<path d="M66.2346 66.069C66.4929 65.5845 66.8553 65.1633 67.2959 64.8356C67.7364 64.5079 68.2441 64.282 68.7824 64.174C69.4847 64.0404 70.208 64.0661 70.899 64.2492C70.9394 64.2524 70.9787 64.2641 71.0144 64.2833C71.0501 64.3026 71.0814 64.3291 71.1063 64.361C71.1312 64.393 71.1492 64.4298 71.1592 64.4691C71.1691 64.5085 71.1708 64.5494 71.1641 64.5894C71.1641 66.2194 71.1641 67.8467 71.1641 69.4714C71.1641 69.7364 71.085 69.7443 70.8674 69.6929C70.2448 69.5259 69.5922 69.504 68.9598 69.6288C68.3275 69.7537 67.7322 70.0219 67.2197 70.4129C67.0302 70.5446 66.878 70.7231 66.7782 70.9312C66.6783 71.1392 66.6342 71.3696 66.65 71.5998C66.6738 75.9517 66.65 80.3035 66.6698 84.6553C66.6698 84.96 66.6105 85.051 66.2742 85.051C64.5374 85.051 62.7967 85.051 61.0599 85.051C60.7948 85.051 60.7236 84.9797 60.7236 84.7147C60.7236 78.0366 60.7236 71.3598 60.7236 64.6843C60.7236 64.443 60.779 64.356 61.0362 64.356C62.5474 64.356 64.0587 64.356 65.57 64.356C65.7995 64.356 65.8786 64.447 65.9181 64.6487C66.017 65.0918 66.1199 65.5389 66.2346 66.069Z" fill="#14EF71"/>
<path d="M78.5313 74.7053C78.5313 78.0166 78.5313 81.3319 78.5313 84.6433C78.5313 84.9479 78.468 85.0389 78.1357 85.0389C76.4002 85.0231 74.6634 85.0231 72.9253 85.0389C72.6365 85.0389 72.5732 84.9519 72.5732 84.6789C72.5732 78.0272 72.5732 71.3755 72.5732 64.7237C72.5732 64.4389 72.6365 64.3281 72.9412 64.3281C74.6793 64.3439 76.416 64.3439 78.1515 64.3281C78.4561 64.3281 78.5234 64.4191 78.5234 64.7237C78.5273 68.047 78.5313 71.3781 78.5313 74.7053Z" fill="#14EF71"/>
<path d="M78.5311 58.877C78.5311 59.5773 78.5311 60.2775 78.5311 60.9778C78.5311 61.1874 78.4876 61.2982 78.2621 61.3457C76.462 61.7215 74.6659 62.1132 72.8698 62.5009C72.6838 62.5405 72.5889 62.5009 72.5889 62.2833C72.5889 60.8485 72.5889 59.4124 72.5889 57.975C72.5889 57.7772 72.668 57.706 72.846 57.6704C74.6342 57.2985 76.4211 56.9213 78.2067 56.5389C78.4638 56.4835 78.539 56.5389 78.5311 56.8119C78.5232 57.5002 78.5311 58.1886 78.5311 58.877Z" fill="#14EF71"/>
</svg>
