<svg width="209" height="35" viewBox="0 0 209 35" fill="none" xmlns="http://www.w3.org/2000/svg">
<g clip-path="url(#clip0)">
<path d="M65.8936 0.411789V26.902H61.0426V24.7059C59.695 26.4902 57.6738 27.451 54.9787 27.451C49.9929 27.451 45.9504 23.0588 45.9504 17.4314C45.9504 11.8039 49.9929 7.41179 54.9787 7.41179C57.6738 7.41179 59.695 8.37257 61.0426 10.1569V0.411789H65.8936ZM61.0426 17.4314C61.0426 14.2745 58.8865 12.0785 55.922 12.0785C52.9575 12.0785 50.8014 14.2745 50.8014 17.4314C50.8014 20.5883 52.9575 22.7843 55.922 22.7843C58.8865 22.7843 61.0426 20.5883 61.0426 17.4314Z" fill="white"/>
<path d="M88.3973 7.96082V26.902H83.5462V24.7059C82.1987 26.353 80.1774 27.451 77.4824 27.451C72.4966 27.451 68.454 23.0589 68.454 17.4314C68.454 11.804 72.4966 7.4118 77.4824 7.4118C80.1774 7.4118 82.1987 8.50984 83.5462 10.1569V7.96082H88.3973ZM83.681 17.4314C83.681 14.2745 81.525 12.0785 78.5604 12.0785C75.5959 12.0785 73.4399 14.2745 73.4399 17.4314C73.4399 20.5883 75.5959 22.7844 78.5604 22.7844C81.3902 22.7844 83.681 20.5883 83.681 17.4314Z" fill="white"/>
<path d="M98.5036 12.7647V20.5883C98.5036 22.6471 99.9859 22.6471 102.681 22.5098V26.902C95.9433 27.7255 93.6526 25.6667 93.6526 20.5883V12.7647H90.4185V7.9608H93.6526V4.11767L98.5036 2.74512V8.09806H102.681V12.7647H98.5036Z" fill="white"/>
<path d="M123.702 7.96082V26.902H118.851V24.7059C117.504 26.353 115.482 27.451 112.787 27.451C107.801 27.451 103.759 23.0589 103.759 17.4314C103.759 11.804 107.801 7.4118 112.787 7.4118C115.482 7.4118 117.504 8.50984 118.851 10.1569V7.96082H123.702ZM118.851 17.4314C118.851 14.2745 116.695 12.0785 113.731 12.0785C110.766 12.0785 108.61 14.2745 108.61 17.4314C108.61 20.5883 110.766 22.7844 113.731 22.7844C116.695 22.7844 118.851 20.5883 118.851 17.4314Z" fill="white"/>
<path d="M146.206 7.96082V26.0785C146.206 32.2549 141.355 35.1373 136.504 35.1373C132.461 35.1373 129.362 33.6275 127.745 30.4706L131.787 28.1373C132.596 29.6471 133.809 30.7451 136.638 30.7451C139.603 30.7451 141.49 29.0981 141.49 26.0785V24.0196C140.142 25.804 138.121 26.902 135.56 26.902C130.305 26.902 126.263 22.5098 126.263 17.1569C126.263 11.804 130.305 7.4118 135.56 7.4118C138.255 7.4118 140.142 8.50984 141.49 10.2942V7.96082H146.206ZM141.49 17.1569C141.49 14.1373 139.333 11.9412 136.234 11.9412C133.135 11.9412 130.979 14.1373 130.979 17.1569C130.979 20.1765 133.135 22.3726 136.234 22.3726C139.333 22.3726 141.49 20.1765 141.49 17.1569Z" fill="white"/>
<path d="M160.22 7.68623V13.1764C157.794 12.9019 154.56 14 154.56 17.9804V27.0392H149.709V7.96074H154.56V11.2549C155.504 8.64702 157.929 7.68623 160.22 7.68623Z" fill="white"/>
<path d="M180.568 7.96082V26.902H175.717V24.7059C174.369 26.353 172.348 27.451 169.653 27.451C164.667 27.451 160.624 23.0589 160.624 17.4314C160.624 11.804 164.667 7.4118 169.653 7.4118C172.348 7.4118 174.369 8.50984 175.717 10.1569V7.96082H180.568ZM175.717 17.4314C175.717 14.2745 173.561 12.0785 170.596 12.0785C167.631 12.0785 165.475 14.2745 165.475 17.4314C165.475 20.5883 167.631 22.7844 170.596 22.7844C173.561 22.7844 175.717 20.5883 175.717 17.4314Z" fill="white"/>
<path d="M201.454 15.3726V27.0393H196.738V16.0589C196.738 13.451 195.256 12.2157 193.099 12.2157C190.809 12.2157 189.057 13.5883 189.057 16.8824V27.0393H184.206V7.96082H189.057V10.0196C190.135 8.37259 192.156 7.4118 194.582 7.4118C198.355 7.4118 201.454 10.2942 201.454 15.3726Z" fill="white"/>
<path d="M209 10.5688C209 12.0786 207.787 13.1766 206.44 13.1766C204.957 13.1766 203.879 11.9413 203.879 10.5688C203.879 9.05895 205.092 7.96091 206.44 7.96091C207.787 7.96091 209 9.1962 209 10.5688ZM208.73 10.5688C208.73 9.1962 207.652 8.09816 206.44 8.09816C205.092 8.09816 204.149 9.1962 204.149 10.5688C204.149 11.9413 205.227 13.0393 206.44 13.0393C207.652 13.0393 208.73 11.9413 208.73 10.5688ZM206.979 10.9805L207.518 11.9413H206.979L206.574 10.9805H206.17V11.9413H205.631V9.1962H206.574C207.248 9.1962 207.518 9.60797 207.518 10.0197C207.518 10.5688 207.248 10.8433 206.979 10.9805ZM206.17 10.5688H206.574C206.844 10.5688 206.979 10.4315 206.979 10.157C206.979 9.88248 206.844 9.74522 206.574 9.74522H206.17V10.5688Z" fill="white"/>
<path d="M27.2199 14C27.2199 21 21.5603 27.451 13.7447 27.451C5.79433 27.3137 0 21.1373 0 13.7255C0 6.31373 5.79433 0 13.6099 0C20.7518 0 27.2199 5.4902 27.2199 14Z" fill="#00FF7F"/>
<path d="M35.7092 0.549118H35.5744H30.4539V26.9021H35.5744H35.7092H40.8297V0.549118H35.7092Z" fill="#00FF7F"/>
</g>
<defs>
<clipPath id="clip0">
<rect width="209" height="35" fill="white"/>
</clipPath>
</defs>
</svg>
